<?xml version="1.0" standalone="no"?>
<!DOCTYPE svg PUBLIC "-//W3C//DTD SVG 20010904//EN"
 "http://www.w3.org/TR/2001/REC-SVG-20010904/DTD/svg10.dtd">
<svg version="1.0" xmlns="http://www.w3.org/2000/svg"
 width="1280.000000pt" height="1280.000000pt" viewBox="0 0 1280.000000 1280.000000"
 preserveAspectRatio="xMidYMid meet">
<metadata>
Created by potrace 1.15, written by Peter Selinger 2001-2017
</metadata>
<g transform="translate(0.000000,1280.000000) scale(0.100000,-0.100000)"
fill="#03a9f4" stroke="none">
<path d="M7100 12334 c-8 -1 -143 -8 -299 -14 -156 -6 -294 -16 -307 -22 -12
-6 -27 -23 -33 -38 -5 -15 -72 -106 -149 -202 -122 -152 -149 -193 -212 -319
-43 -86 -109 -196 -165 -274 -51 -71 -119 -175 -152 -230 -161 -268 -254 -404
-469 -690 -128 -170 -265 -346 -303 -390 -40 -47 -105 -142 -156 -230 -48 -83
-164 -273 -259 -424 -132 -212 -196 -303 -279 -400 -106 -123 -261 -335 -348
-476 -53 -86 -73 -113 -220 -301 -127 -162 -189 -227 -232 -243 -35 -13 -50
-51 -36 -88 5 -16 36 -80 68 -143 32 -63 61 -134 65 -158 10 -63 52 -141 82
-152 14 -6 133 -10 264 -10 198 0 257 -3 342 -20 66 -13 146 -20 223 -20 77
-1 134 -6 160 -15 58 -21 642 -21 740 0 94 20 108 20 96 -2 -15 -27 -155 -177
-373 -398 -172 -175 -221 -232 -393 -462 -107 -145 -244 -330 -303 -412 -93
-130 -261 -336 -468 -575 -61 -71 -366 -458 -436 -556 -21 -28 -38 -60 -38
-71 0 -27 97 -318 116 -346 32 -49 88 -66 249 -74 83 -4 169 -13 193 -19 24
-5 168 -28 320 -50 152 -22 309 -47 349 -55 50 -10 133 -15 272 -15 159 0 220
-4 301 -20 56 -11 110 -20 121 -20 10 0 19 -3 19 -7 0 -5 -44 -100 -98 -213
-73 -152 -127 -247 -209 -370 -61 -91 -164 -255 -230 -365 -66 -110 -177 -288
-245 -395 -122 -190 -640 -967 -789 -1183 -118 -171 -149 -223 -149 -250 0
-27 53 -195 75 -237 8 -14 38 -49 68 -79 76 -74 113 -78 229 -24 46 22 106 47
135 57 33 11 105 57 203 130 83 62 202 142 263 176 62 35 146 89 187 119 101
75 276 246 362 353 38 48 92 104 121 124 29 21 133 117 232 214 99 97 214 203
255 235 113 90 274 249 358 355 41 52 161 183 267 290 105 107 212 222 238
256 25 33 85 94 134 134 48 40 183 166 298 280 116 114 244 234 286 268 83 67
142 129 189 200 28 43 30 51 30 141 -1 53 -16 208 -34 345 -27 198 -38 252
-53 267 -19 19 -204 63 -603 144 -220 44 -712 154 -718 159 -1 2 19 26 45 54
26 28 65 83 87 124 21 40 65 100 96 133 32 33 74 83 95 110 20 28 76 91 124
141 56 58 98 114 121 158 45 87 135 185 285 307 165 133 282 256 350 364 46
75 74 105 163 180 92 78 115 103 162 183 34 56 87 124 136 174 44 46 102 111
128 146 27 35 63 78 81 95 52 52 119 139 155 201 32 57 33 63 46 245 27 367
29 449 11 469 -8 9 -20 29 -26 44 -5 15 -20 34 -33 42 -36 24 -827 162 -1003
175 -166 13 -272 29 -280 42 -3 4 30 48 74 96 44 48 104 117 133 153 35 41 91
91 157 137 57 40 154 112 215 161 102 81 118 98 173 188 106 172 338 432 458
514 86 58 256 200 355 297 52 50 124 115 160 143 36 28 189 174 340 324 151
151 289 281 307 290 25 13 33 24 38 54 3 20 13 75 21 122 9 47 20 144 25 215
4 72 19 202 34 290 34 211 36 262 11 281 -26 18 -60 18 -76 -1 -17 -20 -65
-19 -188 5 -141 27 -385 56 -642 75 -118 9 -264 22 -325 30 -351 45 -497 55
-825 54 -179 -1 -332 -3 -340 -5z m806 -134 c109 -11 251 -27 314 -35 63 -8
230 -24 370 -35 255 -20 513 -51 625 -74 89 -18 83 -37 -35 -98 -115 -60 -130
-73 -130 -111 0 -24 -17 -48 -88 -121 -49 -50 -164 -182 -256 -293 -135 -162
-198 -229 -328 -344 -89 -79 -195 -184 -235 -234 -41 -49 -114 -137 -161 -195
-101 -123 -100 -122 -391 -444 -176 -195 -249 -268 -345 -344 -66 -54 -206
-181 -311 -283 -104 -102 -198 -189 -208 -192 -9 -4 -21 -15 -25 -26 -11 -29
-203 -204 -355 -323 -129 -101 -137 -110 -137 -142 0 -63 14 -66 273 -66 208
0 238 -2 340 -25 201 -46 250 -54 437 -70 124 -11 302 -37 540 -80 195 -36
358 -65 362 -65 29 0 -24 -82 -246 -380 -196 -263 -650 -824 -830 -1025 -160
-179 -386 -427 -496 -545 -64 -69 -152 -163 -195 -210 -43 -47 -135 -132 -204
-189 -419 -348 -629 -536 -637 -568 -10 -38 13 -70 71 -101 59 -32 67 -40 61
-66 -6 -23 10 -56 26 -56 7 0 25 12 40 27 l29 28 107 -29 c59 -16 139 -37 177
-48 99 -26 702 -160 941 -208 278 -56 384 -81 384 -92 0 -5 -26 -42 -58 -81
-66 -82 -115 -153 -191 -280 -47 -78 -136 -187 -341 -417 -37 -41 -111 -124
-165 -185 -54 -60 -163 -191 -243 -290 -86 -106 -236 -271 -363 -400 -118
-121 -280 -292 -360 -380 -79 -88 -200 -211 -269 -274 -69 -63 -190 -173 -269
-245 -80 -72 -190 -173 -245 -224 -99 -92 -252 -218 -411 -339 -60 -46 -122
-79 -245 -133 -90 -40 -187 -83 -213 -97 -27 -13 -50 -23 -52 -21 -2 2 22 37
52 78 170 233 842 1261 1047 1603 42 71 128 207 191 302 105 158 155 251 290
540 18 39 65 138 105 220 114 235 109 283 -35 317 -220 53 -1004 154 -1527
198 -201 16 -369 30 -372 30 -18 0 6 35 121 183 153 197 228 288 353 432 124
141 279 336 360 450 35 50 165 225 289 390 209 280 239 316 450 530 125 127
269 278 321 337 75 87 100 109 127 114 39 7 68 43 59 72 -5 14 11 39 60 93
135 149 164 189 164 220 0 37 -34 105 -59 119 -13 6 -239 10 -663 10 -567 0
-667 2 -848 20 -149 15 -280 20 -482 20 -153 0 -278 4 -278 8 0 4 16 24 36 43
20 18 62 68 93 109 31 41 90 118 132 170 41 52 95 129 119 170 70 122 224 333
341 469 88 101 147 187 303 436 106 171 222 360 256 420 35 61 109 166 165
235 271 334 561 739 730 1020 38 63 115 180 170 260 59 83 131 204 171 283 57
114 91 166 198 300 70 89 138 174 151 188 l22 26 314 12 c173 7 321 14 329 16
8 1 121 3 251 4 170 1 291 -5 435 -19z m1452 -312 c-5 -16 -48 -24 -48 -10 0
11 17 20 38 21 8 1 12 -5 10 -11z m-68 -35 c-6 -10 -19 -58 -31 -108 -11 -49
-24 -106 -29 -125 -5 -22 -6 -2 -3 57 4 66 2 97 -6 107 -17 21 -5 53 27 71 38
20 55 19 42 -2z m-150 -203 c-15 -54 -27 -79 -36 -76 -21 8 -46 -19 -54 -60
-21 -101 -44 -174 -51 -162 -4 7 -3 40 3 73 5 33 8 84 5 114 l-4 54 76 73 c41
40 77 71 80 69 2 -3 -6 -41 -19 -85z m114 -361 c-15 -16 -30 -26 -34 -24 -4 2
4 51 17 107 13 57 27 119 31 138 5 24 8 -1 10 -79 3 -112 2 -115 -24 -142z
m-318 194 c-4 -9 -11 -35 -16 -57 -5 -23 -18 -68 -29 -101 l-19 -60 -1 53 c-1
29 -6 61 -13 71 -10 16 -6 26 28 65 40 46 61 59 50 29z m-151 -195 c-10 -58
-17 -68 -27 -33 -5 20 -3 36 8 52 21 34 27 28 19 -19z m339 -25 c-7 -85 -19
-126 -44 -148 -11 -10 -22 -16 -24 -14 -6 7 57 229 65 229 5 0 6 -30 3 -67z
m-452 -98 c-6 -34 -22 -42 -22 -11 0 13 6 27 13 29 6 3 13 6 13 6 1 1 -1 -10
-4 -24z m219 -183 c-10 -67 -10 -67 -99 -152 -88 -85 -199 -176 -206 -169 -6
7 68 249 76 249 5 0 8 -14 8 -30 0 -34 22 -49 44 -31 7 6 21 41 31 78 24 92
35 100 35 25 0 -48 4 -64 16 -69 30 -11 44 20 93 217 11 47 13 -46 2 -118z
m-331 85 c0 -2 -23 -68 -51 -148 -28 -79 -58 -165 -66 -191 -9 -27 -20 -48
-26 -48 -6 0 -7 19 -4 48 4 26 9 91 13 145 l7 98 55 49 c49 43 72 59 72 47z
m-43 -339 c-3 -8 -6 -5 -6 6 -1 11 2 17 5 13 3 -3 4 -12 1 -19z m-335 -90
c-15 -48 -31 -90 -35 -94 -4 -4 -7 19 -7 52 0 52 4 64 31 97 17 21 33 36 35
35 2 -2 -9 -43 -24 -90z m318 -4 c-8 -41 -21 -76 -36 -92 -37 -42 -29 -2 26
142 18 48 23 21 10 -50z m-156 -103 l-7 -111 -34 -25 c-18 -15 -33 -22 -33
-18 0 26 71 275 77 269 2 -2 0 -53 -3 -115z m-143 -132 c-6 -28 -11 -62 -11
-77 0 -20 -8 -33 -31 -46 l-32 -19 7 29 c4 16 21 74 39 129 27 84 33 95 35 67
2 -18 -1 -56 -7 -83z m-307 -138 c-15 -53 -31 -100 -36 -105 -4 -6 -8 27 -8
73 0 78 2 84 33 123 44 55 47 32 11 -91z m132 -90 c-26 -25 -26 -25 -26 -4 0
21 22 98 38 133 4 8 8 -12 10 -44 3 -53 0 -62 -22 -85z m-262 7 c-9 -58 -24
-72 -24 -22 0 33 13 64 27 64 2 0 0 -19 -3 -42z m-116 -129 l-12 -44 -4 33
c-2 18 2 40 9 48 19 23 21 10 7 -37z m99 -182 c-24 -28 -63 -81 -86 -117 -47
-72 -47 -72 -8 82 l22 87 21 -20 c13 -12 28 -17 38 -13 18 7 45 52 48 81 0 10
3 3 5 -15 4 -27 -3 -41 -40 -85z m-257 26 c0 -22 -65 -201 -72 -197 -4 3 -8
37 -8 75 0 66 2 72 32 100 32 28 48 36 48 22z m58 -115 c-5 -46 -7 -106 -4
-134 l4 -50 -55 -43 c-30 -23 -57 -40 -60 -38 -6 7 110 356 117 352 4 -2 2
-41 -2 -87z m-186 -205 l3 -116 -53 -40 c-29 -22 -55 -38 -57 -35 -3 2 14 63
36 134 23 71 44 139 46 152 12 52 22 14 25 -95z m-182 63 c0 -8 -9 -17 -19
-21 -11 -3 -41 -44 -68 -90 -33 -58 -57 -88 -75 -96 -16 -6 -28 -16 -28 -22 0
-8 -3 -8 -10 -1 -20 20 9 63 101 154 51 50 94 90 95 90 2 0 4 -6 4 -14z m4
-248 c-6 -56 -29 -107 -42 -93 -5 4 40 155 46 155 2 0 0 -28 -4 -62z m-109
-67 c-5 -40 -3 -65 6 -79 14 -22 8 -31 -105 -153 -33 -37 -75 -83 -92 -103
-21 -24 -40 -36 -58 -36 -24 0 -26 3 -26 41 0 34 18 79 46 118 2 1 8 -1 15 -5
29 -17 59 -12 79 13 11 14 20 32 20 40 0 20 108 223 118 223 2 0 1 -26 -3 -59z
m-407 -183 c-8 -12 -21 -24 -29 -26 -8 -3 -3 7 10 22 30 32 39 34 19 4z m1542
-781 c0 -37 -4 -46 -25 -55 -27 -12 -36 -29 -56 -103 l-13 -47 -19 24 c-10 13
-23 22 -28 19 -5 -4 -9 -3 -9 0 0 8 140 205 146 205 2 0 4 -20 4 -43z m-194
-294 l-15 -48 0 56 c-1 31 4 60 12 68 19 19 21 -18 3 -76z m-131 -165 c-25
-104 -34 -114 -35 -40 0 49 5 71 21 94 12 16 23 27 26 24 3 -3 -3 -38 -12 -78z
m221 -40 c-16 -22 -16 -22 -16 -2 0 12 6 36 13 55 l12 34 3 -32 c2 -18 -4 -43
-12 -55z m-4326 65 c0 -13 -54 -63 -67 -63 -18 0 -64 50 -57 61 6 11 124 12
124 2z m468 -2 c11 -6 10 -16 -4 -49 -20 -50 -32 -53 -36 -9 -5 50 -38 48 -74
-5 l-29 -43 -3 35 c-2 19 -7 39 -12 43 -17 19 -48 -5 -65 -49 -13 -33 -20 -42
-26 -33 -10 16 -12 103 -2 112 9 10 236 8 251 -2z m118 -31 c-3 -11 -9 -30
-12 -41 -5 -17 -8 -19 -15 -8 -5 8 -9 26 -9 42 0 21 5 27 21 27 16 0 19 -5 15
-20z m84 -4 c0 -8 -4 -18 -10 -21 -5 -3 -10 3 -10 14 0 12 5 21 10 21 6 0 10
-6 10 -14z m180 -6 c0 -5 -5 -10 -11 -10 -5 0 -7 5 -4 10 3 6 8 10 11 10 2 0
4 -4 4 -10z m530 8 c-1 -16 -70 -182 -79 -191 -9 -9 -11 -9 -7 3 2 8 7 43 11
76 4 49 2 65 -10 77 -9 9 -21 14 -28 11 -16 -6 -37 -61 -37 -97 0 -48 -18 -28
-25 28 -14 109 -62 91 -85 -32 -7 -37 -16 -77 -20 -88 -7 -19 -7 -19 -19 3 -8
16 -9 28 -1 41 5 11 10 45 10 75 0 45 -4 58 -20 68 -11 7 -20 16 -20 20 0 5
74 8 165 8 91 0 165 -1 165 -2z m530 -8 c0 -5 -5 -21 -12 -36 -11 -23 -17 -25
-48 -21 -20 2 -44 0 -53 -5 -13 -7 -17 -5 -17 10 0 11 -7 25 -15 32 -21 17
-41 -1 -70 -65 l-23 -50 -1 51 c-2 92 -44 95 -83 7 -28 -63 -43 -66 -35 -8 4
26 7 58 7 71 l0 24 175 0 c104 0 175 -4 175 -10z m190 2 c0 -13 -59 -66 -66
-60 -11 12 27 68 46 68 11 0 20 -4 20 -8z m-1169 -116 c5 -6 9 -16 9 -24 0
-11 -9 -13 -42 -8 -72 12 -74 16 -26 75 l43 53 3 -43 c2 -24 7 -48 13 -53z
m3040 -49 c-8 -8 -11 1 -11 29 0 53 14 67 18 19 2 -21 -1 -42 -7 -48z m-3811
3 l0 -70 -35 0 c-19 0 -35 3 -35 8 0 14 55 131 63 132 4 0 7 -31 7 -70z m354
-2 c3 -34 12 -65 19 -70 15 -10 -17 -11 -62 -2 -27 6 -32 10 -27 28 10 42 47
116 55 112 4 -3 11 -33 15 -68z m198 -26 c6 -7 22 -12 35 -10 17 2 29 -5 43
-26 10 -17 17 -33 14 -38 -11 -17 -222 -3 -241 16 -4 4 -3 10 3 14 6 4 13 14
16 22 3 9 17 15 34 15 25 0 32 7 54 54 l25 54 3 -44 c2 -24 8 -50 14 -57z
m3538 89 c0 -5 -7 -14 -15 -21 -13 -10 -15 -9 -15 9 0 12 6 21 15 21 8 0 15
-4 15 -9z m-4265 -13 c22 -10 25 -17 25 -65 0 -56 -7 -64 -33 -35 -15 16 -35
112 -24 112 4 0 18 -5 32 -12z m393 -64 c-3 -49 -3 -49 -40 -52 -22 -2 -38 1
-38 8 0 19 65 109 73 101 5 -5 7 -30 5 -57z m3728 -103 c-20 -19 -21 -7 -3 57
l12 47 3 -44 c2 -30 -2 -49 -12 -60z m-2736 23 c-13 -45 -30 -59 -30 -25 0 27
32 98 38 83 2 -8 -1 -33 -8 -58z m-422 40 c9 -7 -11 -64 -23 -64 -14 0 -75 59
-75 73 0 7 89 0 98 -9z m82 -16 c0 -7 3 -23 6 -35 5 -19 2 -23 -15 -23 -22 0
-25 10 -15 48 7 23 24 31 24 10z m560 -10 c0 -29 -14 -52 -28 -47 -7 3 -6 15
5 37 18 38 23 40 23 10z m-120 -23 c0 -24 -5 -35 -15 -35 -18 0 -19 9 -5 44
13 36 20 32 20 -9z m-310 -29 c-14 -14 -24 0 -16 21 6 15 8 15 16 3 6 -9 5
-19 0 -24z m2746 -153 c-6 -77 -29 -135 -66 -168 l-23 -20 6 40 c4 22 20 83
37 135 16 52 30 102 30 110 1 11 3 10 12 -4 7 -12 8 -46 4 -93z m-186 30 c0
-19 -3 -24 -10 -17 -6 6 -8 18 -4 27 9 24 14 21 14 -10z m-149 -203 c-12 -27
-26 -61 -31 -75 -8 -21 -13 -24 -27 -16 -12 6 -27 5 -48 -6 l-30 -16 40 49
c94 117 110 134 113 124 2 -6 -5 -33 -17 -60z m159 -35 c-11 -58 -41 -108 -56
-92 -5 4 19 79 52 161 14 36 16 -3 4 -69z m-337 -145 c-3 -12 -8 -19 -11 -16
-5 6 5 36 12 36 2 0 2 -9 -1 -20z m166 -116 c-16 -28 -41 -61 -55 -75 l-26
-24 7 25 c9 30 74 191 83 205 4 6 10 -10 13 -35 5 -38 2 -53 -22 -96z m-227
-181 c17 -21 36 -15 52 15 12 22 16 24 21 11 4 -12 -8 -31 -43 -63 -63 -59
-142 -119 -148 -113 -4 4 39 154 83 287 l18 55 3 -89 c2 -50 8 -96 14 -103z
m-172 47 c0 -5 -5 -10 -11 -10 -5 0 -7 5 -4 10 3 6 8 10 11 10 2 0 4 -4 4 -10z
m-156 -182 c-16 -23 -29 -45 -31 -47 -2 -2 -6 -2 -9 2 -8 8 56 100 64 92 2 -2
-9 -23 -24 -47z m105 -102 c-7 -20 -17 -36 -22 -36 -9 0 -8 7 15 52 18 37 23
27 7 -16z m-109 -28 c0 -2 -9 -27 -20 -56 -11 -29 -20 -63 -20 -76 0 -30 -53
-133 -86 -166 -35 -36 -31 -13 23 119 46 115 81 181 96 181 4 0 7 -1 7 -2z
m-282 -432 c39 27 25 -5 -33 -80 -30 -39 -75 -91 -101 -116 -26 -25 -63 -78
-84 -121 -40 -78 -65 -104 -159 -165 l-55 -35 -80 20 c-45 12 -91 24 -103 27
-28 8 -29 22 -4 52 24 27 31 28 31 2 0 -32 35 -42 127 -38 79 3 86 5 105 31
15 20 24 25 32 18 23 -19 46 12 65 89 22 90 39 135 48 127 17 -17 43 20 68 98
19 57 32 84 41 81 6 -2 20 1 31 9 15 11 20 11 34 -1 13 -12 18 -11 37 2z
m-408 -108 c0 -7 -5 -20 -10 -28 -8 -12 -10 -9 -10 13 0 15 5 27 10 27 6 0 10
-6 10 -12z m-256 -240 c-13 -82 -64 -123 -64 -52 0 26 8 43 29 65 16 16 32 29
35 29 4 0 3 -19 0 -42z m229 -21 c20 4 27 1 27 -11 0 -13 -11 -16 -55 -16 -59
0 -61 1 -44 31 9 19 12 19 27 6 11 -10 28 -13 45 -10z m1432 -727 c7 -48 -3
-80 -25 -80 -14 0 -20 78 -8 104 17 38 25 32 33 -24z m-3475 -80 c255 -21 355
-35 404 -55 48 -21 13 -25 -75 -10 -94 16 -324 34 -534 42 -137 5 -154 10
-155 41 0 11 13 13 58 8 31 -3 167 -15 302 -26z m3360 -14 c0 -3 -4 -8 -10
-11 -5 -3 -10 -1 -10 4 0 6 5 11 10 11 6 0 10 -2 10 -4z m-3592 -93 l37 -17
-49 -4 c-57 -4 -76 2 -76 23 0 20 41 19 88 -2z m1325 -20 c-7 -2 -21 -2 -30 0
-10 3 -4 5 12 5 17 0 24 -2 18 -5z m-478 -13 c8 -13 -25 -13 -45 0 -12 8 -9
10 12 10 15 0 30 -4 33 -10z m558 3 c-7 -2 -19 -2 -25 0 -7 3 -2 5 12 5 14 0
19 -2 13 -5z m2099 -39 c-6 -22 -18 -84 -27 -139 -24 -140 -29 -144 -35 -30
-6 105 -1 126 42 188 26 36 32 29 20 -19z m-1833 0 c2 -2 -1 -15 -7 -28 -12
-27 -44 -37 -130 -41 -26 -1 -57 -5 -69 -10 -19 -6 -23 -4 -23 13 0 19 7 21
68 24 67 3 67 3 65 31 -2 28 -2 28 45 21 26 -3 49 -8 51 -10z m2078 -96 c5
-89 4 -94 -20 -116 l-25 -24 4 64 c12 161 16 190 26 180 6 -6 13 -53 15 -104z
m-3404 75 c-13 -2 -33 -2 -45 0 -13 2 -3 4 22 4 25 0 35 -2 23 -4z m1441 1
c20 -8 20 -31 1 -64 l-14 -25 -1 24 c0 14 -10 35 -22 48 l-21 23 20 0 c12 0
28 -3 37 -6z m-737 -75 c-12 -7 -27 -7 -45 0 -25 9 -24 9 18 10 36 0 41 -2 27
-10z m158 -59 c0 -9 -11 -16 -27 -18 -20 -2 -28 1 -28 12 0 8 6 17 13 19 21 9
42 2 42 -13z m220 7 c11 0 33 3 48 8 25 7 28 5 25 -11 -3 -16 -14 -19 -76 -22
-39 -2 -72 1 -72 6 0 16 25 32 40 26 8 -4 24 -7 35 -7z m293 -37 c6 0 12 -7
12 -15 0 -11 -11 -15 -38 -15 -21 0 -42 3 -45 7 -13 12 16 34 37 29 12 -3 27
-6 34 -6z m1618 -129 c-27 -126 -31 -139 -47 -130 -30 16 -39 10 -57 -32 l-17
-41 -29 27 c-27 25 -29 26 -48 8 -11 -10 -24 -27 -29 -38 -6 -13 -7 -6 -3 20
6 39 20 75 33 85 4 3 53 58 109 123 57 64 107 117 111 117 4 0 -6 -63 -23
-139z m298 92 c4 -21 9 -50 12 -64 4 -23 -4 -33 -62 -78 -68 -52 -84 -58 -65
-23 5 10 19 55 31 98 28 107 26 104 54 104 20 0 25 -6 30 -37z m-248 -273 c-4
-50 -18 -81 -32 -67 -4 4 -1 39 6 78 15 80 32 74 26 -11z m-397 -124 c-9 -19
-15 -23 -20 -14 -5 7 -1 20 8 30 22 24 27 17 12 -16z m301 -11 c0 -15 -38 -50
-46 -42 -3 3 0 21 7 41 10 27 16 33 26 24 7 -6 13 -16 13 -23z m-596 -402
c-60 -96 -104 -131 -104 -85 0 17 119 142 134 142 4 0 -10 -26 -30 -57z m48
-150 c-27 -37 -62 -69 -62 -55 0 36 27 64 78 81 2 1 -5 -11 -16 -26z m-313
-125 c-15 -29 -80 -118 -85 -118 -10 0 28 75 53 105 32 38 49 45 32 13z m-284
-245 c-12 -17 -20 -23 -23 -15 -4 14 28 56 36 47 3 -2 -3 -17 -13 -32z m-138
-149 c-8 -15 -17 -22 -20 -17 -6 9 24 55 31 48 2 -2 -3 -16 -11 -31z m148
-104 c-16 -16 -31 -27 -34 -24 -5 5 48 54 58 54 3 0 -8 -13 -24 -30z m-304
-92 c-11 -24 -30 -54 -41 -68 -19 -25 -20 -25 -20 -3 0 34 19 75 48 106 34 35
39 21 13 -35z m79 -98 c0 -5 -5 -10 -11 -10 -5 0 -7 5 -4 10 3 6 8 10 11 10 2
0 4 -4 4 -10z m-235 -100 c-9 -18 -19 -30 -22 -27 -3 3 3 19 13 36 23 39 30
32 9 -9z m-121 -47 c-26 -38 -56 -78 -67 -90 -19 -21 -21 -21 -33 -5 -7 9 -14
20 -14 23 0 6 149 139 156 139 3 0 -16 -30 -42 -67z m-289 -257 c-15 -20 -30
-36 -34 -36 -4 0 -32 -38 -62 -85 -29 -47 -58 -85 -64 -85 -5 0 -56 -32 -113
-71 -63 -43 -109 -69 -118 -65 -24 9 -16 18 76 92 47 38 117 98 155 134 113
106 177 161 182 156 3 -3 -7 -21 -22 -40z m-327 -507 c2 -11 -26 -33 -90 -69
-112 -64 -199 -123 -333 -224 -55 -41 -106 -76 -113 -76 -21 0 19 60 44 66 12
3 42 29 67 59 27 30 67 63 94 76 26 12 64 35 83 50 64 51 214 140 229 137 9
-2 17 -10 19 -19z m-388 -23 c0 -3 -4 -8 -10 -11 -5 -3 -10 -1 -10 4 0 6 5 11
10 11 6 0 10 -2 10 -4z m-456 -235 c3 -5 -1 -11 -9 -15 -15 -6 -29 7 -18 18 9
9 21 8 27 -3z m216 -111 c0 -33 -4 -38 -55 -63 -31 -15 -61 -27 -69 -27 -19 0
-87 72 -84 89 4 20 68 36 144 36 l64 0 0 -35z"/>
</g>
</svg>
