<?xml version="1.0" standalone="no"?>
<!DOCTYPE svg PUBLIC "-//W3C//DTD SVG 20010904//EN"
 "http://www.w3.org/TR/2001/REC-SVG-20010904/DTD/svg10.dtd">
<svg version="1.0" xmlns="http://www.w3.org/2000/svg"
 width="1177.000000pt" height="1280.000000pt" viewBox="0 0 1177.000000 1280.000000"
 preserveAspectRatio="xMidYMid meet">
<metadata>
Created by potrace 1.15, written by Peter Selinger 2001-2017
</metadata>
<g transform="translate(0.000000,1280.000000) scale(0.100000,-0.100000)"
fill="#03a9f4" stroke="none">
<path d="M4670 12627 c-71 -36 -85 -105 -84 -437 1 -580 120 -1054 404 -1606
54 -106 101 -205 104 -222 10 -43 -13 -62 -74 -62 l-49 0 -88 133 c-85 128
-212 363 -268 497 -79 187 -172 514 -220 775 -37 200 -51 434 -37 631 9 140 9
161 -5 177 -14 15 -36 17 -173 17 -187 0 -185 1 -200 -111 -17 -132 -23 -447
-11 -604 36 -479 125 -801 364 -1326 l25 -56 -51 8 c-247 38 -679 36 -962 -6
-137 -20 -355 -67 -349 -76 2 -4 -29 -10 -69 -14 -39 -4 -135 -17 -213 -30
-511 -86 -1010 -288 -1428 -580 -53 -37 -98 -66 -99 -64 -19 29 -62 121 -82
172 -69 184 -83 377 -49 682 6 63 6 69 -9 57 -40 -33 -92 -187 -109 -322 -15
-126 -1 -252 43 -384 38 -114 118 -258 139 -251 8 3 -3 -11 -25 -31 -22 -20
-91 -84 -153 -142 l-113 -104 -52 26 c-86 42 -161 125 -218 241 -144 295 -140
643 10 979 68 150 205 341 349 482 52 52 91 94 87 94 -15 0 -163 -131 -256
-227 -127 -130 -208 -242 -280 -388 -65 -134 -111 -284 -130 -427 -23 -177 15
-370 109 -552 76 -149 160 -237 265 -280 l54 -22 -88 -108 c-372 -459 -594
-1005 -664 -1636 -8 -74 -15 -171 -15 -215 0 -140 97 -735 141 -867 30 -90
147 -328 212 -430 154 -243 398 -500 621 -651 151 -103 412 -214 626 -265 183
-45 292 -55 502 -49 258 7 413 43 628 145 55 26 114 47 140 49 135 11 372 95
506 178 144 90 293 253 373 407 40 77 70 182 56 196 -4 4 -10 2 -12 -4 -15
-43 -156 -236 -229 -313 -139 -148 -255 -221 -444 -282 -52 -17 -101 -36 -110
-42 -8 -7 -2 4 13 23 95 120 125 160 173 237 30 48 66 123 81 167 25 75 27 93
27 251 0 202 -15 270 -95 434 -38 78 -66 119 -113 167 -67 69 -95 79 -116 39
-12 -22 -10 -28 22 -67 83 -102 125 -201 152 -357 31 -181 16 -342 -42 -458
-71 -141 -237 -328 -350 -395 -129 -77 -129 -77 -285 -57 -518 67 -912 297
-1224 714 -277 370 -406 785 -407 1310 0 480 133 929 404 1362 272 434 645
779 1087 1004 61 31 110 59 107 62 -2 2 22 9 53 16 l58 12 33 -38 c46 -52 127
-221 153 -318 30 -111 37 -345 15 -470 -50 -288 -209 -570 -461 -819 -73 -73
-81 -83 -42 -55 73 51 242 213 323 311 133 159 234 360 286 563 19 76 23 115
22 255 0 150 -3 173 -27 253 -29 93 -90 224 -139 295 -17 24 -28 45 -26 47 6
5 291 34 403 40 61 3 115 2 121 -2 18 -13 72 -126 100 -210 52 -160 65 -342
40 -563 -7 -63 -10 -119 -5 -124 12 -14 47 51 81 154 31 91 32 102 33 255 0
138 -3 171 -23 239 -25 88 -86 226 -105 238 -20 13 111 9 241 -7 433 -54 825
-176 1227 -384 185 -95 311 -173 513 -319 320 -230 442 -313 632 -429 264
-162 384 -240 520 -341 577 -427 1031 -1033 1236 -1647 75 -227 148 -525 172
-708 l9 -67 -86 -83 c-202 -194 -431 -343 -666 -431 -57 -22 -68 -22 -198 -15
-379 23 -678 144 -961 387 -318 274 -506 669 -509 1072 -1 75 4 168 12 210 33
185 121 388 231 534 33 44 60 81 60 83 0 22 -101 -77 -183 -179 -57 -71 -139
-235 -174 -348 -24 -79 -26 -102 -31 -312 -5 -260 1 -304 58 -480 87 -264 214
-472 405 -663 130 -130 233 -208 367 -280 121 -64 266 -125 302 -126 17 -1 2
-6 -34 -11 -85 -13 -285 5 -416 37 -287 69 -511 195 -723 405 -307 304 -450
681 -419 1098 12 161 80 356 175 499 55 84 173 203 252 257 148 99 290 144
476 153 141 6 224 -9 318 -59 83 -45 180 -142 214 -214 26 -54 28 -69 28 -179
0 -111 -2 -125 -29 -182 -24 -53 -27 -65 -16 -78 32 -39 78 4 122 113 19 49
22 76 22 187 0 113 -3 137 -22 185 -69 163 -260 315 -447 355 -153 32 -376 10
-545 -56 -98 -37 -234 -119 -319 -189 -143 -120 -282 -336 -358 -557 l-38
-108 0 -280 c0 -278 1 -281 28 -370 88 -285 207 -507 375 -699 424 -485 1147
-696 1827 -532 120 29 281 82 395 130 45 20 86 33 90 31 19 -11 366 92 399
119 12 9 13 0 7 -64 -21 -225 -149 -673 -206 -725 -12 -10 -20 -31 -20 -48 0
-39 -99 -226 -204 -387 -266 -404 -581 -692 -991 -906 -129 -67 -320 -127
-515 -160 -288 -49 -537 -142 -783 -293 -68 -42 -82 -48 -73 -32 7 11 -118 47
-214 62 -98 15 -265 5 -360 -21 -82 -23 -231 -90 -225 -101 3 -3 -62 -9 -143
-12 -115 -4 -166 -11 -236 -31 -258 -73 -530 -280 -696 -528 -87 -130 -243
-449 -227 -464 2 -3 21 30 41 73 187 394 506 686 860 788 233 67 522 47 665
-45 50 -32 121 -102 121 -119 0 -6 -24 -46 -54 -91 -115 -172 -205 -377 -253
-580 -30 -130 -43 -413 -24 -538 38 -238 121 -455 250 -647 84 -126 119 -164
244 -266 149 -123 212 -163 309 -203 162 -65 325 -92 499 -83 86 4 128 12 212
41 178 59 288 123 395 228 183 180 253 384 207 601 -35 165 -166 299 -336 344
-83 21 -119 14 -119 -26 0 -30 14 -41 53 -41 70 0 211 -109 262 -202 29 -51
30 -58 30 -178 0 -123 -1 -126 -36 -200 -83 -174 -255 -315 -478 -390 -124
-41 -311 -43 -466 -5 -372 94 -685 428 -790 845 -131 519 37 1027 470 1419 39
35 100 81 135 103 l65 39 3 -37 c4 -44 -8 -74 -71 -183 -91 -154 -168 -357
-203 -536 -25 -126 -26 -406 -1 -529 51 -249 183 -524 337 -699 56 -63 309
-252 385 -288 90 -43 265 -81 265 -59 0 6 -5 8 -10 5 -6 -4 -16 -2 -23 3 -7 5
-44 23 -83 39 -94 39 -222 116 -299 180 -125 103 -280 313 -344 466 -182 439
-138 941 118 1327 105 160 285 348 415 434 98 65 254 144 322 164 410 119 572
169 646 198 47 19 99 37 115 39 37 5 339 97 426 129 37 14 113 49 170 77 442
221 795 615 1096 1223 78 157 102 192 163 243 34 28 197 48 308 38 161 -14
393 -65 469 -104 20 -10 63 -30 96 -45 333 -152 599 -503 671 -885 24 -126 15
-343 -19 -472 -113 -431 -508 -701 -914 -624 -160 30 -269 108 -342 244 -28
54 -32 71 -32 136 0 89 26 170 75 233 28 35 33 48 25 63 -16 31 -49 22 -92
-23 -79 -83 -126 -239 -107 -356 22 -133 149 -297 280 -360 265 -129 639 -86
886 101 120 91 245 243 314 385 15 31 40 104 54 162 62 255 66 304 42 500 -42
331 -168 593 -395 821 -112 112 -172 160 -296 235 -73 44 -75 47 -56 61 65 45
239 73 292 46 13 -7 72 -32 131 -57 153 -64 194 -87 283 -154 211 -157 390
-407 468 -657 47 -146 52 -189 51 -405 l0 -205 -37 -94 c-20 -51 -37 -98 -37
-105 1 -28 44 62 61 124 10 38 33 114 51 167 30 92 32 106 32 233 -1 216 -32
358 -113 518 -17 34 -29 62 -26 62 10 0 93 -181 128 -281 34 -92 67 -221 85
-329 l9 -55 2 53 c0 28 -6 98 -14 155 -51 338 -149 568 -341 797 -104 124
-234 224 -376 290 -35 16 -57 29 -49 29 7 1 22 12 32 25 33 43 106 59 233 53
239 -11 449 -105 692 -311 80 -68 114 -89 114 -70 0 4 -14 32 -32 63 -39 71
-214 245 -290 290 -237 139 -573 172 -732 71 -75 -48 -123 -70 -153 -70 -22 0
-25 -2 -13 -10 19 -13 -67 -2 -93 12 -37 19 -176 56 -273 74 -132 23 -420 24
-554 1 -128 -22 -322 -72 -314 -80 4 -4 -8 -7 -26 -7 -41 0 -80 39 -80 79 0
16 9 73 20 127 146 701 84 1379 -183 2030 -43 106 -161 344 -247 502 -22 41
-40 85 -40 99 0 39 47 77 135 108 661 233 1193 683 1477 1251 36 71 63 136 61
144 -9 33 42 -40 78 -112 52 -103 84 -203 105 -328 24 -145 15 -365 -20 -505
-44 -176 -113 -353 -183 -468 -53 -88 -33 -80 24 10 123 191 211 391 255 574
19 81 22 123 22 294 1 157 -3 215 -17 267 -30 119 -76 224 -142 322 l-64 96
14 37 c8 21 24 72 36 113 40 141 109 173 233 108 78 -42 209 -170 271 -266 88
-138 135 -258 184 -482 37 -163 58 -149 60 38 2 241 -81 443 -258 625 -95 99
-174 151 -265 179 -155 46 -161 56 -157 263 6 426 -102 805 -329 1150 -116
175 -286 363 -401 442 -75 52 -281 174 -359 213 -102 52 -184 77 -325 102
-201 34 -469 17 -657 -43 -37 -12 -65 -25 -62 -30 3 -5 -37 -9 -89 -9 -124 0
-321 -26 -424 -56 -472 -137 -853 -573 -855 -979 -1 -118 26 -244 74 -344 82
-175 322 -321 524 -321 70 0 97 15 92 51 -3 22 -8 24 -73 30 -119 11 -247 76
-349 176 -73 72 -114 180 -131 343 -24 239 165 554 443 737 164 108 303 154
523 174 240 22 459 -19 673 -127 451 -227 764 -653 872 -1188 31 -153 42 -407
25 -552 -41 -330 -145 -592 -359 -904 -207 -301 -484 -540 -824 -710 l-119
-60 -62 78 c-94 119 -438 457 -577 568 -134 107 -431 310 -569 388 -227 130
-371 234 -411 296 -40 64 -79 197 -93 317 -10 96 -1 306 20 431 15 91 -62 -35
-97 -158 -11 -41 -25 -133 -30 -204 -11 -136 -18 -161 -49 -171 -44 -14 -147
70 -335 273 l-59 63 18 67 c54 204 202 438 402 640 56 56 99 102 96 102 -14 0
-157 -124 -248 -216 -127 -128 -203 -231 -287 -391 -37 -71 -68 -121 -68 -113
0 9 -27 51 -59 93 -290 379 -484 785 -600 1257 -77 316 -101 502 -101 803 0
199 -7 227 -61 246 -43 15 -148 14 -179 -2z m4006 -656 c388 -75 736 -318 976
-680 276 -417 369 -977 242 -1457 -14 -54 -27 -106 -27 -115 -1 -14 -9 -12
-52 11 -63 36 -146 60 -203 60 -41 0 -44 2 -38 23 14 44 19 372 7 475 -50 457
-243 867 -566 1201 -115 118 -165 156 -365 276 -195 116 -249 140 -398 180
-107 28 -120 34 -82 34 25 0 72 5 105 10 85 14 284 5 401 -18z m1040 -2316
c114 -56 113 -51 46 -185 -63 -127 -181 -312 -277 -435 -67 -85 -248 -266
-330 -330 -27 -21 -70 -57 -94 -79 l-45 -41 52 65 c231 293 384 600 463 935
11 50 23 96 25 104 7 21 78 6 160 -34z m-8489 -447 c-65 -81 -194 -287 -265
-426 -126 -246 -221 -517 -276 -792 -67 -332 -76 -559 -32 -835 72 -450 95
-541 186 -732 134 -282 304 -510 527 -709 180 -160 303 -238 516 -328 123 -52
327 -115 378 -117 27 -1 23 -3 -21 -11 -90 -16 -389 -3 -505 22 -429 91 -775
315 -1043 673 -218 291 -335 583 -381 947 -39 312 -37 464 10 743 76 457 269
867 591 1260 64 78 331 347 344 347 3 0 -10 -19 -29 -42z m5800 -575 c165
-117 353 -278 499 -428 l81 -83 -42 -11 c-23 -6 -49 -13 -57 -16 -11 -4 -43
27 -104 102 -134 162 -332 366 -519 532 l-60 53 64 -48 c35 -27 97 -73 138
-101z m840 -830 c7 -10 46 -67 87 -128 194 -292 326 -574 416 -885 95 -325
137 -573 111 -651 -7 -21 -46 -69 -101 -124 l-90 -90 0 41 c0 74 -29 347 -50
469 -69 402 -241 859 -465 1232 -30 51 -56 97 -57 104 -2 6 23 19 57 29 76 23
75 23 92 3z m630 -2120 c11 -28 14 -55 9 -108 -12 -122 -45 -306 -78 -425 -17
-63 -31 -123 -32 -132 0 -13 -30 -27 -113 -56 -62 -21 -113 -36 -113 -33 0 3
11 51 25 106 33 138 62 304 80 470 8 77 19 141 23 143 4 1 32 18 62 37 33 21
68 35 88 35 29 0 35 -5 49 -37z m1082 -729 l-40 -41 -102 40 c-56 21 -103 40
-104 41 -1 0 63 1 142 1 l144 0 -40 -41z m-1315 -282 c-7 -4 -34 -50 -61 -102
-134 -257 -300 -483 -523 -710 l-93 -95 66 96 c106 153 203 321 288 499 44 91
85 176 92 190 9 17 47 42 116 78 57 28 109 52 115 52 8 0 8 -3 0 -8z m-3344
-1913 c36 -6 71 -12 79 -12 7 0 -22 -32 -65 -71 -44 -38 -107 -99 -141 -135
-35 -36 -63 -61 -63 -54 0 18 -100 123 -145 151 -22 14 -70 37 -107 52 l-66
26 56 13 c175 41 327 51 452 30z"/>
<path d="M7668 11783 c-37 -10 -193 -193 -211 -248 -4 -11 30 19 76 66 45 48
110 110 145 138 58 47 61 51 35 50 -15 -1 -36 -3 -45 -6z"/>
<path d="M5808 7793 c7 -3 16 -2 19 1 4 3 -2 6 -13 5 -11 0 -14 -3 -6 -6z"/>
<path d="M4093 2593 c9 -2 25 -2 35 0 9 3 1 5 -18 5 -19 0 -27 -2 -17 -5z"/>
</g>
</svg>
